<?xml version="1.0" standalone="no"?>
<!DOCTYPE svg PUBLIC "-//W3C//DTD SVG 20010904//EN"
 "http://www.w3.org/TR/2001/REC-SVG-20010904/DTD/svg10.dtd">
<svg version="1.0" xmlns="http://www.w3.org/2000/svg"
 width="2224.000000pt" height="1668.000000pt" viewBox="0 0 2224.000000 1668.000000"
 preserveAspectRatio="xMidYMid meet">

<g transform="translate(0.000000,1668.000000) scale(0.100000,-0.100000)"
fill="#000000" stroke="none">
<path d="M11045 13667 c3 -113 19 -173 84 -312 42 -90 133 -229 190 -290 68
-74 68 -69 21 -117 -53 -54 -78 -109 -96 -207 -18 -102 -17 -210 2 -285 30
-117 31 -117 302 -276 136 -80 312 -187 392 -239 80 -51 228 -140 328 -198
146 -82 484 -289 641 -391 35 -24 -226 329 -559 753 -108 138 -259 333 -335
435 -76 102 -245 322 -375 490 -130 168 -306 397 -392 510 -85 113 -167 211
-180 217 l-25 11 2 -101z"/>
<path d="M9294 13464 c14 -57 164 -260 307 -416 119 -129 300 -271 379 -297
53 -17 86 -46 73 -63 -24 -29 -50 -248 -48 -398 7 -379 92 -640 337 -1030 80
-128 408 -464 459 -472 15 -2 25 -10 27 -24 2 -17 -12 -32 -67 -68 -148 -98
-289 -309 -398 -596 -93 -245 -207 -659 -228 -830 -4 -30 -15 -107 -25 -170
-29 -177 -47 -815 -25 -838 2 -2 52 38 111 89 390 334 834 592 1274 739 341
114 631 166 980 177 791 24 1527 -238 2174 -774 115 -95 199 -152 194 -129 -2
7 -185 513 -408 1123 l-405 1110 -115 66 c-63 36 -128 71 -144 77 -41 15 -169
93 -386 235 -218 143 -495 317 -837 527 -346 212 -365 223 -635 369 -264 143
-326 181 -653 399 -121 81 -274 182 -340 224 -66 43 -124 83 -130 90 -15 18
-1344 837 -1454 896 -23 12 -23 11 -17 -16z"/>
<path d="M10550 10696 c-184 -65 -539 -283 -799 -490 -450 -359 -817 -809
-1080 -1321 -178 -345 -309 -740 -375 -1125 -45 -261 -51 -341 -51 -670 0
-338 10 -460 61 -725 80 -414 182 -693 475 -1301 199 -414 614 -828 1229
-1226 328 -212 592 -333 1060 -486 339 -110 612 -174 925 -217 162 -22 537
-31 690 -16 241 23 484 88 639 169 l70 36 -160 23 c-447 63 -840 186 -1249
390 -599 299 -1091 709 -1512 1258 -56 74 -209 309 -270 415 -171 297 -292
587 -348 830 -78 339 -106 662 -93 1060 1 8 -11 71 -25 140 -155 747 -98 1534
160 2184 97 247 219 472 364 677 76 107 225 289 238 289 4 0 33 29 65 65 31
36 56 65 54 64 -2 0 -32 -11 -68 -23z"/>
<path d="M10343 10298 c-173 -236 -331 -538 -427 -819 -83 -247 -164 -639
-187 -909 -16 -189 -6 -603 20 -792 32 -239 62 -384 75 -365 6 9 39 67 74 129
149 270 378 525 659 735 997 744 2555 840 3896 239 31 -14 57 -24 57 -21 0 8
-160 126 -267 195 -259 170 -658 332 -1068 434 -210 52 -317 65 -590 73 -362
10 -753 -53 -1110 -178 -442 -155 -859 -397 -1220 -710 -55 -48 -113 -101
-129 -118 -37 -39 -82 -43 -95 -8 -35 91 -39 604 -7 872 55 458 185 924 346
1244 22 45 39 81 37 81 -2 0 -30 -37 -64 -82z"/>
<path d="M12300 8830 c-958 -90 -1739 -482 -2200 -1105 -88 -118 -140 -204
-212 -349 -57 -116 -59 -122 -64 -220 -12 -190 25 -559 82 -829 22 -102 46
-178 142 -447 31 -87 201 -416 285 -552 500 -809 1301 -1444 2202 -1746 241
-81 480 -136 765 -177 38 -5 23 5 -105 69 -82 41 -213 116 -290 168 -766 510
-1353 1340 -1469 2078 -24 150 -46 404 -46 531 0 152 43 495 80 636 34 129 84
264 103 278 7 6 28 37 45 70 106 199 345 414 575 519 96 44 242 90 337 107
117 20 308 16 413 -10 151 -36 228 -80 339 -193 86 -87 100 -106 126 -175 44
-113 55 -185 49 -310 -3 -59 -8 -118 -12 -131 -7 -22 -6 -22 61 9 80 35 427
263 594 390 120 91 217 185 363 355 106 124 273 346 307 409 l25 46 -25 20
c-41 32 -236 133 -375 194 -406 179 -817 291 -1285 350 -147 19 -666 28 -810
15z"/>
<path d="M16078 6925 c-15 -25 -41 -78 -58 -118 -195 -457 -584 -850 -1100
-1111 -321 -163 -624 -254 -995 -302 -178 -23 -517 -23 -690 0 -534 71 -974
273 -1290 594 -209 212 -349 468 -403 735 -11 50 -21 86 -24 81 -6 -11 -23
-125 -43 -296 -26 -221 -15 -514 30 -792 35 -219 146 -523 282 -769 320 -582
899 -1149 1447 -1416 149 -73 309 -133 356 -134 72 -1 543 210 765 344 222
134 480 365 691 619 549 661 950 1551 1038 2303 15 128 29 307 24 307 -2 0
-15 -20 -30 -45z"/>
</g>
</svg>
